<svg width="24" height="24" viewBox="0 0 24 24" fill="none" xmlns="http://www.w3.org/2000/svg">
<path d="M9.25 11.73C9.25259 11.9281 9.33244 12.1174 9.47253 12.2575C9.61263 12.3976 9.80189 12.4774 10 12.48L15 12.48V16C15 17.3261 14.4732 18.5979 13.5355 19.5355C12.5979 20.4732 11.3261 21 10 21C8.67392 21 7.40215 20.4732 6.46447 19.5355C5.52678 18.5979 5 17.3261 5 16L5 8C5 6.67392 5.52678 5.40215 6.46447 4.46447C7.40215 3.52678 8.67392 3 10 3C11.3261 3 12.5979 3.52678 13.5355 4.46447C14.4732 5.40215 15 6.67392 15 8L15 11L10 11C9.80526 11.0024 9.61888 11.0795 9.47932 11.2153C9.33976 11.3512 9.25767 11.5354 9.25 11.73Z" fill="#FAFBFF"/>
<path d="M22.69 12C22.6521 12.0893 22.5978 12.1707 22.53 12.24L18.93 15.84C18.7894 15.9805 18.5988 16.0594 18.4 16.0594C18.2012 16.0594 18.0106 15.9805 17.87 15.84C17.7296 15.6994 17.6507 15.5088 17.6507 15.31C17.6507 15.1113 17.7296 14.9207 17.87 14.78L20.19 12.46H15V11H20.19L17.87 8.66004C17.7963 8.59137 17.7372 8.50857 17.6962 8.41657C17.6552 8.32458 17.6332 8.22526 17.6314 8.12456C17.6296 8.02386 17.6482 7.92383 17.6859 7.83044C17.7236 7.73705 17.7797 7.65222 17.851 7.581C17.9222 7.50978 18.007 7.45363 18.1004 7.41591C18.1938 7.37819 18.2938 7.35967 18.3945 7.36144C18.4952 7.36322 18.5945 7.38526 18.6865 7.42626C18.7785 7.46725 18.8613 7.52635 18.93 7.60004L22.53 11.2C22.5978 11.2694 22.6521 11.3508 22.69 11.44C22.7269 11.5288 22.7458 11.6239 22.7458 11.72C22.7458 11.8161 22.7269 11.9113 22.69 12Z" fill="#FAFBFF"/>
</svg>
